<svg xmlns="http://www.w3.org/2000/svg" width="1100" height="322" viewBox="0 0 1100 322" role="img" aria-label="mao@lab -- research infrastructure, agent orchestration, reverse engineering, security research. 4705 contributions in the last year.">
<style>
text{font-family:'JetBrains Mono','SFMono-Regular',Consolas,'Liberation Mono',Menlo,monospace;font-size:14.5px}
.cur{animation:bl 1.2s steps(1) infinite 1s}
@keyframes bl{50%{opacity:0}}
.sc{animation:sc 9s cubic-bezier(.4,0,.6,1) infinite}
@keyframes sc{from{transform:translateY(-70px)}to{transform:translateY(322px)}}
</style>
<defs>
  <linearGradient id="ti" x1="0" x2="1"><stop offset="0" stop-color="#8fa8ff"/><stop offset="1" stop-color="#5ad2e8"/></linearGradient>
  <pattern id="gr" width="28" height="28" patternUnits="userSpaceOnUse"><path d="M28 0H0v28" fill="none" stroke="#0f1520" stroke-width="1"/></pattern>
  <linearGradient id="sg" x1="0" y1="0" x2="0" y2="1"><stop offset="0" stop-color="#5ad2e8" stop-opacity="0"/><stop offset="1" stop-color="#5ad2e8" stop-opacity=".06"/></linearGradient>
</defs>
<rect width="1100" height="322" rx="14" fill="#06080e"/>
<rect width="1100" height="322" rx="14" fill="url(#gr)"/>
<rect class="sc" width="1100" height="70" fill="url(#sg)"/>
<polyline points="0.0,279.6 6.1,272.7 12.2,275.7 18.3,275.7 24.4,282.0 30.6,282.0 36.7,280.5 42.8,278.8 48.9,282.0 55.0,278.1 61.1,279.6 67.2,280.5 73.3,282.0 79.4,282.0 85.6,264.1 91.7,271.8 97.8,277.5 103.9,282.0 110.0,282.0 116.1,282.0 122.2,276.9 128.3,277.5 134.4,276.3 140.6,271.3 146.7,274.1 152.8,280.5 158.9,282.0 165.0,282.0 171.1,270.1 177.2,268.4 183.3,275.2 189.4,282.0 195.6,282.0 201.7,272.2 207.8,280.5 213.9,282.0 220.0,280.5 226.1,270.5 232.2,273.6 238.3,282.0 244.4,282.0 250.6,282.0 256.7,282.0 262.8,282.0 268.9,282.0 275.0,282.0 281.1,282.0 287.2,282.0 293.3,282.0 299.4,282.0 305.6,282.0 311.7,282.0 317.8,282.0 323.9,282.0 330.0,282.0 336.1,282.0 342.2,282.0 348.3,282.0 354.4,282.0 360.6,274.6 366.7,271.1 372.8,265.0 378.9,275.7 385.0,276.3 391.1,268.2 397.2,272.5 403.3,270.5 409.4,276.3 415.6,275.4 421.7,276.9 427.8,281.1 433.9,282.0 440.0,280.5 446.1,282.0 452.2,282.0 458.3,267.4 464.4,282.0 470.6,282.0 476.7,282.0 482.8,282.0 488.9,282.0 495.0,282.0 501.1,282.0 507.2,282.0 513.3,282.0 519.4,282.0 525.6,282.0 531.7,281.1 537.8,282.0 543.9,282.0 550.0,280.1 556.1,280.5 562.2,279.2 568.3,276.9 574.4,272.9 580.6,276.3 586.7,279.2 592.8,276.6 598.9,278.5 605.0,272.5 611.1,280.1 617.2,280.5 623.3,280.5 629.4,281.1 635.6,280.5 641.7,282.0 647.8,272.9 653.9,271.6 660.0,275.7 666.1,274.9 672.2,274.4 678.3,270.3 684.4,273.9 690.6,276.6 696.7,271.6 702.8,272.7 708.9,282.0 715.0,276.9 721.1,274.9 727.2,275.7 733.3,276.6 739.4,274.9 745.6,270.7 751.7,279.2 757.8,276.9 763.9,272.0 770.0,274.9 776.1,276.9 782.2,278.5 788.3,273.6 794.4,279.2 800.6,279.2 806.7,275.7 812.8,276.0 818.9,273.6 825.0,272.0 831.1,277.5 837.2,276.9 843.3,280.1 849.4,274.9 855.6,271.8 861.7,275.2 867.8,277.8 873.9,279.6 880.0,272.5 886.1,274.4 892.2,277.8 898.3,279.6 904.4,281.1 910.6,282.0 916.7,273.4 922.8,273.2 928.9,272.9 935.0,265.8 941.1,263.6 947.2,257.9 953.3,263.4 959.4,268.2 965.6,280.5 971.7,271.8 977.8,268.4 983.9,277.5 990.0,256.5 996.1,260.3 1002.2,261.6 1008.3,277.8 1014.4,282.0 1020.6,266.1 1026.7,273.4 1032.8,271.3 1038.9,271.8 1045.0,273.2 1051.1,252.6 1057.2,252.9 1063.3,258.8 1069.4,252.0 1075.6,272.5 1081.7,263.1 1087.8,272.9 1093.9,280.5" fill="none" stroke="#5ad2e8" stroke-width="1.1" stroke-opacity=".36"/>
<rect x=".5" y=".5" width="1099" height="321" rx="14" fill="none" stroke="#161d2b"/>
<circle cx="26" cy="24" r="5" fill="#ff6b9d" opacity=".7"/><circle cx="43" cy="24" r="5" fill="#f5b95c" opacity=".7"/><circle cx="60" cy="24" r="5" fill="#5ad2e8" opacity=".7"/>
<text x="550.0" y="29" text-anchor="middle" fill="#7d8aa3" style="font-size:11.5px">mao@lab: ~/bench . observation active</text>
<text x="34" y="72"><tspan fill="#5ad2e8">$</tspan><tspan fill="#e6ecf5"> probe --all</tspan><tspan class="cur" fill="#5ad2e8">_</tspan></text>
<g><circle cx="52" cy="99" r="3" fill="#5ad2e8"/><text x="68" y="104" fill="#e6ecf5">research infrastructure</text></g><g><circle cx="52" cy="124" r="3" fill="#5ad2e8"/><text x="68" y="129" fill="#e6ecf5">agent orchestration</text></g><g><circle cx="52" cy="149" r="3" fill="#8fa8ff"/><text x="68" y="154" fill="#e6ecf5">reverse engineering</text></g><g><circle cx="52" cy="174" r="3" fill="#8fa8ff"/><text x="68" y="179" fill="#e6ecf5">security research</text></g><g><circle cx="52" cy="199" r="3" fill="#b08cff"/><text x="68" y="204" fill="#e6ecf5">systems &amp; automation</text></g><g><circle cx="52" cy="224" r="3" fill="#b08cff"/><text x="68" y="229" fill="#e6ecf5">applied ML</text></g>
<text x="620" y="64" style="font-size:36px;font-weight:700" fill="url(#ti)">mao@lab</text>
<g><rect x="620" y="92" width="120" height="22" rx="11" fill="none" stroke="#5ad2e8" stroke-opacity=".5"/><text x="630" y="107" fill="#5ad2e8" style="font-size:11.5px">no look-ahead</text></g><g><rect x="750.1" y="92" width="128" height="22" rx="11" fill="none" stroke="#8fa8ff" stroke-opacity=".5"/><text x="760.1" y="107" fill="#8fa8ff" style="font-size:11.5px">replay == live</text></g><g><rect x="620" y="124" width="105" height="22" rx="11" fill="none" stroke="#b08cff" stroke-opacity=".5"/><text x="630" y="139" fill="#b08cff" style="font-size:11.5px">scope first</text></g><g><rect x="734.7" y="124" width="151" height="22" rx="11" fill="none" stroke="#f5b95c" stroke-opacity=".5"/><text x="744.7" y="139" fill="#f5b95c" style="font-size:11.5px">it stops and asks</text></g>
<line x1="0" y1="288" x2="1100" y2="288" stroke="#161d2b"/>
<text x="34" y="308" fill="#737e99" style="font-size:11px">180d signal</text>
<text x="1066" y="308" text-anchor="end" fill="#7d8aa3" style="font-size:11px">4,705 contributions . 246/365 active . streak 32d . 37.7 MB authored</text>
</svg>