<svg xmlns="http://www.w3.org/2000/svg" width="1000" height="210" viewBox="0 0 1000 210" role="img" aria-label="Punch card of 2010 commits by weekday and author-local hour. peak hour 21:00 . 6% outside 07-23 . 20% on weekends">
<style>text{font-family:'JetBrains Mono','SFMono-Regular',Consolas,'Liberation Mono',Menlo,monospace;font-size:11px}</style>
<rect width="1000" height="210" rx="12" fill="#0b0e14"/>
<rect x=".5" y=".5" width="999" height="209" rx="12" fill="none" stroke="#1c2230"/>
<text x="16" y="24" fill="#6b7489">PUNCHCARD-04 . 2,010 commits by weekday x hour . author-local clock, not UTC . shaded band = 00-06 and 23</text>
<rect x="58" y="50" width="252" height="119" fill="#b69cff" fill-opacity=".05"/><rect x="886" y="50" width="36" height="119" fill="#b69cff" fill-opacity=".05"/><text x="76.0" y="42" text-anchor="middle" fill="#6b7489">00</text><text x="184.0" y="42" text-anchor="middle" fill="#6b7489">03</text><text x="292.0" y="42" text-anchor="middle" fill="#6b7489">06</text><text x="400.0" y="42" text-anchor="middle" fill="#6b7489">09</text><text x="508.0" y="42" text-anchor="middle" fill="#6b7489">12</text><text x="616.0" y="42" text-anchor="middle" fill="#6b7489">15</text><text x="724.0" y="42" text-anchor="middle" fill="#6b7489">18</text><text x="832.0" y="42" text-anchor="middle" fill="#6b7489">21</text><text x="46" y="64.5" text-anchor="end" fill="#6b7489">mon</text><text x="46" y="81.5" text-anchor="end" fill="#6b7489">tue</text><text x="46" y="98.5" text-anchor="end" fill="#6b7489">wed</text><text x="46" y="115.5" text-anchor="end" fill="#6b7489">thu</text><text x="46" y="132.5" text-anchor="end" fill="#6b7489">fri</text><text x="46" y="149.5" text-anchor="end" fill="#6b7489">sat</text><text x="46" y="166.5" text-anchor="end" fill="#6b7489">sun</text><circle cx="76.0" cy="60.5" r="4.6" fill="#7ee7c4" fill-opacity="0.59"><title>mon 00:00 . 8 commits</title></circle><circle cx="112.0" cy="60.5" r="3.1" fill="#7ee7c4" fill-opacity="0.42"><title>mon 01:00 . 1 commits</title></circle><circle cx="184.0" cy="60.5" r="3.4" fill="#7ee7c4" fill-opacity="0.45"><title>mon 03:00 . 2 commits</title></circle><circle cx="220.0" cy="60.5" r="3.1" fill="#7ee7c4" fill-opacity="0.42"><title>mon 04:00 . 1 commits</title></circle><circle cx="256.0" cy="60.5" r="3.1" fill="#7ee7c4" fill-opacity="0.42"><title>mon 05:00 . 1 commits</title></circle><circle cx="328.0" cy="60.5" r="5.1" fill="#7ee7c4" fill-opacity="0.64"><title>mon 07:00 . 11 commits</title></circle><circle cx="364.0" cy="60.5" r="6.3" fill="#7ee7c4" fill-opacity="0.80"><title>mon 08:00 . 23 commits</title></circle><circle cx="400.0" cy="60.5" r="6.0" fill="#7ee7c4" fill-opacity="0.75"><title>mon 09:00 . 19 commits</title></circle><circle cx="436.0" cy="60.5" r="6.8" fill="#7ee7c4" fill-opacity="0.86"><title>mon 10:00 . 28 commits</title></circle><circle cx="472.0" cy="60.5" r="6.4" fill="#7ee7c4" fill-opacity="0.81"><title>mon 11:00 . 24 commits</title></circle><circle cx="508.0" cy="60.5" r="5.8" fill="#7ee7c4" fill-opacity="0.73"><title>mon 12:00 . 17 commits</title></circle><circle cx="544.0" cy="60.5" r="5.8" fill="#7ee7c4" fill-opacity="0.73"><title>mon 13:00 . 17 commits</title></circle><circle cx="580.0" cy="60.5" r="5.7" fill="#7ee7c4" fill-opacity="0.71"><title>mon 14:00 . 16 commits</title></circle><circle cx="616.0" cy="60.5" r="4.5" fill="#7ee7c4" fill-opacity="0.57"><title>mon 15:00 . 7 commits</title></circle><circle cx="652.0" cy="60.5" r="3.7" fill="#7ee7c4" fill-opacity="0.48"><title>mon 16:00 . 3 commits</title></circle><circle cx="688.0" cy="60.5" r="5.1" fill="#7ee7c4" fill-opacity="0.64"><title>mon 17:00 . 11 commits</title></circle><circle cx="724.0" cy="60.5" r="5.8" fill="#7ee7c4" fill-opacity="0.73"><title>mon 18:00 . 17 commits</title></circle><circle cx="760.0" cy="60.5" r="4.8" fill="#7ee7c4" fill-opacity="0.61"><title>mon 19:00 . 9 commits</title></circle><circle cx="796.0" cy="60.5" r="5.3" fill="#7ee7c4" fill-opacity="0.67"><title>mon 20:00 . 13 commits</title></circle><circle cx="832.0" cy="60.5" r="5.8" fill="#7ee7c4" fill-opacity="0.73"><title>mon 21:00 . 17 commits</title></circle><circle cx="868.0" cy="60.5" r="5.5" fill="#7ee7c4" fill-opacity="0.70"><title>mon 22:00 . 15 commits</title></circle><circle cx="904.0" cy="60.5" r="4.1" fill="#7ee7c4" fill-opacity="0.53"><title>mon 23:00 . 5 commits</title></circle><circle cx="76.0" cy="77.5" r="3.1" fill="#7ee7c4" fill-opacity="0.42"><title>tue 00:00 . 1 commits</title></circle><circle cx="256.0" cy="77.5" r="3.1" fill="#7ee7c4" fill-opacity="0.42"><title>tue 05:00 . 1 commits</title></circle><circle cx="328.0" cy="77.5" r="4.5" fill="#7ee7c4" fill-opacity="0.57"><title>tue 07:00 . 7 commits</title></circle><circle cx="364.0" cy="77.5" r="5.7" fill="#7ee7c4" fill-opacity="0.71"><title>tue 08:00 . 16 commits</title></circle><circle cx="400.0" cy="77.5" r="6.1" fill="#7ee7c4" fill-opacity="0.77"><title>tue 09:00 . 20 commits</title></circle><circle cx="436.0" cy="77.5" r="6.0" fill="#7ee7c4" fill-opacity="0.75"><title>tue 10:00 . 19 commits</title></circle><circle cx="472.0" cy="77.5" r="5.1" fill="#7ee7c4" fill-opacity="0.64"><title>tue 11:00 . 11 commits</title></circle><circle cx="508.0" cy="77.5" r="5.2" fill="#7ee7c4" fill-opacity="0.66"><title>tue 12:00 . 12 commits</title></circle><circle cx="544.0" cy="77.5" r="4.8" fill="#7ee7c4" fill-opacity="0.61"><title>tue 13:00 . 9 commits</title></circle><circle cx="580.0" cy="77.5" r="5.1" fill="#7ee7c4" fill-opacity="0.64"><title>tue 14:00 . 11 commits</title></circle><circle cx="616.0" cy="77.5" r="4.1" fill="#7ee7c4" fill-opacity="0.53"><title>tue 15:00 . 5 commits</title></circle><circle cx="652.0" cy="77.5" r="5.4" fill="#7ee7c4" fill-opacity="0.69"><title>tue 16:00 . 14 commits</title></circle><circle cx="688.0" cy="77.5" r="4.1" fill="#7ee7c4" fill-opacity="0.53"><title>tue 17:00 . 5 commits</title></circle><circle cx="724.0" cy="77.5" r="5.4" fill="#7ee7c4" fill-opacity="0.69"><title>tue 18:00 . 14 commits</title></circle><circle cx="760.0" cy="77.5" r="5.5" fill="#7ee7c4" fill-opacity="0.70"><title>tue 19:00 . 15 commits</title></circle><circle cx="796.0" cy="77.5" r="5.7" fill="#7ee7c4" fill-opacity="0.71"><title>tue 20:00 . 16 commits</title></circle><circle cx="832.0" cy="77.5" r="5.9" fill="#7ee7c4" fill-opacity="0.74"><title>tue 21:00 . 18 commits</title></circle><circle cx="868.0" cy="77.5" r="5.3" fill="#7ee7c4" fill-opacity="0.67"><title>tue 22:00 . 13 commits</title></circle><circle cx="904.0" cy="77.5" r="3.4" fill="#7ee7c4" fill-opacity="0.45"><title>tue 23:00 . 2 commits</title></circle><circle cx="76.0" cy="94.5" r="3.9" fill="#7ee7c4" fill-opacity="0.51"><title>wed 00:00 . 4 commits</title></circle><circle cx="148.0" cy="94.5" r="3.4" fill="#7ee7c4" fill-opacity="0.45"><title>wed 02:00 . 2 commits</title></circle><circle cx="328.0" cy="94.5" r="5.2" fill="#7ee7c4" fill-opacity="0.66"><title>wed 07:00 . 12 commits</title></circle><circle cx="364.0" cy="94.5" r="6.4" fill="#7ee7c4" fill-opacity="0.81"><title>wed 08:00 . 24 commits</title></circle><circle cx="400.0" cy="94.5" r="6.3" fill="#7ee7c4" fill-opacity="0.79"><title>wed 09:00 . 22 commits</title></circle><circle cx="436.0" cy="94.5" r="6.4" fill="#7ee7c4" fill-opacity="0.81"><title>wed 10:00 . 24 commits</title></circle><circle cx="472.0" cy="94.5" r="7.2" fill="#7ee7c4" fill-opacity="0.91"><title>wed 11:00 . 33 commits</title></circle><circle cx="508.0" cy="94.5" r="6.8" fill="#7ee7c4" fill-opacity="0.86"><title>wed 12:00 . 28 commits</title></circle><circle cx="544.0" cy="94.5" r="6.9" fill="#7ee7c4" fill-opacity="0.87"><title>wed 13:00 . 29 commits</title></circle><circle cx="580.0" cy="94.5" r="6.3" fill="#7ee7c4" fill-opacity="0.80"><title>wed 14:00 . 23 commits</title></circle><circle cx="616.0" cy="94.5" r="6.8" fill="#7ee7c4" fill-opacity="0.86"><title>wed 15:00 . 28 commits</title></circle><circle cx="652.0" cy="94.5" r="5.8" fill="#7ee7c4" fill-opacity="0.73"><title>wed 16:00 . 17 commits</title></circle><circle cx="688.0" cy="94.5" r="4.9" fill="#7ee7c4" fill-opacity="0.62"><title>wed 17:00 . 10 commits</title></circle><circle cx="724.0" cy="94.5" r="6.2" fill="#7ee7c4" fill-opacity="0.78"><title>wed 18:00 . 21 commits</title></circle><circle cx="760.0" cy="94.5" r="5.3" fill="#7ee7c4" fill-opacity="0.67"><title>wed 19:00 . 13 commits</title></circle><circle cx="796.0" cy="94.5" r="6.8" fill="#7ee7c4" fill-opacity="0.86"><title>wed 20:00 . 28 commits</title></circle><circle cx="832.0" cy="94.5" r="7.4" fill="#7ee7c4" fill-opacity="0.94"><title>wed 21:00 . 36 commits</title></circle><circle cx="868.0" cy="94.5" r="6.2" fill="#7ee7c4" fill-opacity="0.78"><title>wed 22:00 . 21 commits</title></circle><circle cx="904.0" cy="94.5" r="5.8" fill="#7ee7c4" fill-opacity="0.73"><title>wed 23:00 . 17 commits</title></circle><circle cx="76.0" cy="111.5" r="3.7" fill="#7ee7c4" fill-opacity="0.48"><title>thu 00:00 . 3 commits</title></circle><circle cx="112.0" cy="111.5" r="3.4" fill="#7ee7c4" fill-opacity="0.45"><title>thu 01:00 . 2 commits</title></circle><circle cx="328.0" cy="111.5" r="4.5" fill="#7ee7c4" fill-opacity="0.57"><title>thu 07:00 . 7 commits</title></circle><circle cx="364.0" cy="111.5" r="6.4" fill="#7ee7c4" fill-opacity="0.81"><title>thu 08:00 . 24 commits</title></circle><circle cx="400.0" cy="111.5" r="6.4" fill="#7ee7c4" fill-opacity="0.81"><title>thu 09:00 . 24 commits</title></circle><circle cx="436.0" cy="111.5" r="6.7" fill="#7ee7c4" fill-opacity="0.85"><title>thu 10:00 . 27 commits</title></circle><circle cx="472.0" cy="111.5" r="6.2" fill="#7ee7c4" fill-opacity="0.78"><title>thu 11:00 . 21 commits</title></circle><circle cx="508.0" cy="111.5" r="6.2" fill="#7ee7c4" fill-opacity="0.78"><title>thu 12:00 . 21 commits</title></circle><circle cx="544.0" cy="111.5" r="5.7" fill="#7ee7c4" fill-opacity="0.71"><title>thu 13:00 . 16 commits</title></circle><circle cx="580.0" cy="111.5" r="6.3" fill="#7ee7c4" fill-opacity="0.79"><title>thu 14:00 . 22 commits</title></circle><circle cx="616.0" cy="111.5" r="5.1" fill="#7ee7c4" fill-opacity="0.64"><title>thu 15:00 . 11 commits</title></circle><circle cx="652.0" cy="111.5" r="5.5" fill="#7ee7c4" fill-opacity="0.70"><title>thu 16:00 . 15 commits</title></circle><circle cx="688.0" cy="111.5" r="6.0" fill="#7ee7c4" fill-opacity="0.75"><title>thu 17:00 . 19 commits</title></circle><circle cx="724.0" cy="111.5" r="4.8" fill="#7ee7c4" fill-opacity="0.61"><title>thu 18:00 . 9 commits</title></circle><circle cx="760.0" cy="111.5" r="6.0" fill="#7ee7c4" fill-opacity="0.75"><title>thu 19:00 . 19 commits</title></circle><circle cx="796.0" cy="111.5" r="6.7" fill="#7ee7c4" fill-opacity="0.85"><title>thu 20:00 . 27 commits</title></circle><circle cx="832.0" cy="111.5" r="6.9" fill="#7ee7c4" fill-opacity="0.87"><title>thu 21:00 . 29 commits</title></circle><circle cx="868.0" cy="111.5" r="6.4" fill="#7ee7c4" fill-opacity="0.81"><title>thu 22:00 . 24 commits</title></circle><circle cx="904.0" cy="111.5" r="6.2" fill="#7ee7c4" fill-opacity="0.78"><title>thu 23:00 . 21 commits</title></circle><circle cx="76.0" cy="128.5" r="3.9" fill="#7ee7c4" fill-opacity="0.51"><title>fri 00:00 . 4 commits</title></circle><circle cx="112.0" cy="128.5" r="4.1" fill="#7ee7c4" fill-opacity="0.53"><title>fri 01:00 . 5 commits</title></circle><circle cx="328.0" cy="128.5" r="4.8" fill="#7ee7c4" fill-opacity="0.61"><title>fri 07:00 . 9 commits</title></circle><circle cx="364.0" cy="128.5" r="6.6" fill="#7ee7c4" fill-opacity="0.84"><title>fri 08:00 . 26 commits</title></circle><circle cx="400.0" cy="128.5" r="7.8" fill="#7ee7c4" fill-opacity="1.00"><title>fri 09:00 . 42 commits</title></circle><circle cx="436.0" cy="128.5" r="7.1" fill="#7ee7c4" fill-opacity="0.90"><title>fri 10:00 . 32 commits</title></circle><circle cx="472.0" cy="128.5" r="7.2" fill="#7ee7c4" fill-opacity="0.91"><title>fri 11:00 . 33 commits</title></circle><circle cx="508.0" cy="128.5" r="7.5" fill="#7ee7c4" fill-opacity="0.95"><title>fri 12:00 . 37 commits</title></circle><circle cx="544.0" cy="128.5" r="6.9" fill="#7ee7c4" fill-opacity="0.87"><title>fri 13:00 . 29 commits</title></circle><circle cx="580.0" cy="128.5" r="6.8" fill="#7ee7c4" fill-opacity="0.86"><title>fri 14:00 . 28 commits</title></circle><circle cx="616.0" cy="128.5" r="6.3" fill="#7ee7c4" fill-opacity="0.80"><title>fri 15:00 . 23 commits</title></circle><circle cx="652.0" cy="128.5" r="5.3" fill="#7ee7c4" fill-opacity="0.67"><title>fri 16:00 . 13 commits</title></circle><circle cx="688.0" cy="128.5" r="5.3" fill="#7ee7c4" fill-opacity="0.67"><title>fri 17:00 . 13 commits</title></circle><circle cx="724.0" cy="128.5" r="4.3" fill="#7ee7c4" fill-opacity="0.55"><title>fri 18:00 . 6 commits</title></circle><circle cx="760.0" cy="128.5" r="5.1" fill="#7ee7c4" fill-opacity="0.64"><title>fri 19:00 . 11 commits</title></circle><circle cx="796.0" cy="128.5" r="4.3" fill="#7ee7c4" fill-opacity="0.55"><title>fri 20:00 . 6 commits</title></circle><circle cx="832.0" cy="128.5" r="5.7" fill="#7ee7c4" fill-opacity="0.71"><title>fri 21:00 . 16 commits</title></circle><circle cx="868.0" cy="128.5" r="6.7" fill="#7ee7c4" fill-opacity="0.85"><title>fri 22:00 . 27 commits</title></circle><circle cx="904.0" cy="128.5" r="6.3" fill="#7ee7c4" fill-opacity="0.80"><title>fri 23:00 . 23 commits</title></circle><circle cx="76.0" cy="145.5" r="3.1" fill="#7ee7c4" fill-opacity="0.42"><title>sat 00:00 . 1 commits</title></circle><circle cx="364.0" cy="145.5" r="3.9" fill="#7ee7c4" fill-opacity="0.51"><title>sat 08:00 . 4 commits</title></circle><circle cx="400.0" cy="145.5" r="3.7" fill="#7ee7c4" fill-opacity="0.48"><title>sat 09:00 . 3 commits</title></circle><circle cx="436.0" cy="145.5" r="3.7" fill="#7ee7c4" fill-opacity="0.48"><title>sat 10:00 . 3 commits</title></circle><circle cx="472.0" cy="145.5" r="5.2" fill="#7ee7c4" fill-opacity="0.66"><title>sat 11:00 . 12 commits</title></circle><circle cx="508.0" cy="145.5" r="4.8" fill="#7ee7c4" fill-opacity="0.61"><title>sat 12:00 . 9 commits</title></circle><circle cx="544.0" cy="145.5" r="4.1" fill="#7ee7c4" fill-opacity="0.53"><title>sat 13:00 . 5 commits</title></circle><circle cx="580.0" cy="145.5" r="4.1" fill="#7ee7c4" fill-opacity="0.53"><title>sat 14:00 . 5 commits</title></circle><circle cx="616.0" cy="145.5" r="5.3" fill="#7ee7c4" fill-opacity="0.67"><title>sat 15:00 . 13 commits</title></circle><circle cx="652.0" cy="145.5" r="5.3" fill="#7ee7c4" fill-opacity="0.67"><title>sat 16:00 . 13 commits</title></circle><circle cx="688.0" cy="145.5" r="4.8" fill="#7ee7c4" fill-opacity="0.61"><title>sat 17:00 . 9 commits</title></circle><circle cx="724.0" cy="145.5" r="5.3" fill="#7ee7c4" fill-opacity="0.67"><title>sat 18:00 . 13 commits</title></circle><circle cx="760.0" cy="145.5" r="4.9" fill="#7ee7c4" fill-opacity="0.62"><title>sat 19:00 . 10 commits</title></circle><circle cx="796.0" cy="145.5" r="5.1" fill="#7ee7c4" fill-opacity="0.64"><title>sat 20:00 . 11 commits</title></circle><circle cx="832.0" cy="145.5" r="5.9" fill="#7ee7c4" fill-opacity="0.74"><title>sat 21:00 . 18 commits</title></circle><circle cx="868.0" cy="145.5" r="6.1" fill="#7ee7c4" fill-opacity="0.77"><title>sat 22:00 . 20 commits</title></circle><circle cx="904.0" cy="145.5" r="5.1" fill="#7ee7c4" fill-opacity="0.64"><title>sat 23:00 . 11 commits</title></circle><circle cx="76.0" cy="162.5" r="4.1" fill="#7ee7c4" fill-opacity="0.53"><title>sun 00:00 . 5 commits</title></circle><circle cx="400.0" cy="162.5" r="3.9" fill="#7ee7c4" fill-opacity="0.51"><title>sun 09:00 . 4 commits</title></circle><circle cx="436.0" cy="162.5" r="4.1" fill="#7ee7c4" fill-opacity="0.53"><title>sun 10:00 . 5 commits</title></circle><circle cx="472.0" cy="162.5" r="5.2" fill="#7ee7c4" fill-opacity="0.66"><title>sun 11:00 . 12 commits</title></circle><circle cx="508.0" cy="162.5" r="4.9" fill="#7ee7c4" fill-opacity="0.62"><title>sun 12:00 . 10 commits</title></circle><circle cx="544.0" cy="162.5" r="4.8" fill="#7ee7c4" fill-opacity="0.61"><title>sun 13:00 . 9 commits</title></circle><circle cx="580.0" cy="162.5" r="5.3" fill="#7ee7c4" fill-opacity="0.67"><title>sun 14:00 . 13 commits</title></circle><circle cx="616.0" cy="162.5" r="6.1" fill="#7ee7c4" fill-opacity="0.77"><title>sun 15:00 . 20 commits</title></circle><circle cx="652.0" cy="162.5" r="5.4" fill="#7ee7c4" fill-opacity="0.69"><title>sun 16:00 . 14 commits</title></circle><circle cx="688.0" cy="162.5" r="6.5" fill="#7ee7c4" fill-opacity="0.83"><title>sun 17:00 . 25 commits</title></circle><circle cx="724.0" cy="162.5" r="6.5" fill="#7ee7c4" fill-opacity="0.83"><title>sun 18:00 . 25 commits</title></circle><circle cx="760.0" cy="162.5" r="6.9" fill="#7ee7c4" fill-opacity="0.87"><title>sun 19:00 . 29 commits</title></circle><circle cx="796.0" cy="162.5" r="6.3" fill="#7ee7c4" fill-opacity="0.80"><title>sun 20:00 . 23 commits</title></circle><circle cx="832.0" cy="162.5" r="6.2" fill="#7ee7c4" fill-opacity="0.78"><title>sun 21:00 . 21 commits</title></circle><circle cx="868.0" cy="162.5" r="6.6" fill="#7ee7c4" fill-opacity="0.84"><title>sun 22:00 . 26 commits</title></circle><circle cx="904.0" cy="162.5" r="6.0" fill="#7ee7c4" fill-opacity="0.75"><title>sun 23:00 . 19 commits</title></circle>
<text x="16" y="196" fill="#ffcf70">peak hour 21:00 . 6% outside 07-23 . 20% on weekends</text>
</svg>