<svg xmlns="http://www.w3.org/2000/svg" width="1000" height="190" viewBox="0 0 1000 190" role="img" aria-label="Language emission spectrum across all repositories">
<style>text{font-family:'JetBrains Mono','SFMono-Regular',Consolas,'Liberation Mono',Menlo,monospace;font-size:11px}.sp{animation:f 2s ease-out backwards}@keyframes f{from{opacity:0}}</style>
<rect width="1000" height="190" rx="12" fill="#0b0e14"/>
<rect x=".5" y=".5" width="999" height="189" rx="12" fill="none" stroke="#1c2230"/>
<text x="40" y="28" fill="#6b7489">SPECTRO-02 . emission spectrum of 37.7 MB authored source . 13 repos, public + private . generated reports excluded</text>
<g class="sp"><line x1="377.4" y1="44" x2="377.4" y2="104" stroke="#7ee7c4" stroke-opacity="0.60"/><line x1="259.4" y1="44" x2="259.4" y2="104" stroke="#7ee7c4" stroke-opacity="0.71"/><line x1="692.7" y1="44" x2="692.7" y2="104" stroke="#7ee7c4" stroke-opacity="0.60"/><line x1="373.6" y1="44" x2="373.6" y2="104" stroke="#7ee7c4" stroke-opacity="0.58"/><line x1="605.9" y1="44" x2="605.9" y2="104" stroke="#7ee7c4" stroke-opacity="0.74"/><line x1="244.1" y1="44" x2="244.1" y2="104" stroke="#7ee7c4" stroke-opacity="0.41"/><line x1="677.5" y1="44" x2="677.5" y2="104" stroke="#7ee7c4" stroke-opacity="0.72"/><line x1="699.6" y1="44" x2="699.6" y2="104" stroke="#7ee7c4" stroke-opacity="0.30"/><line x1="541.9" y1="44" x2="541.9" y2="104" stroke="#7ee7c4" stroke-opacity="0.32"/><line x1="149.7" y1="44" x2="149.7" y2="104" stroke="#7ee7c4" stroke-opacity="0.65"/><line x1="205.3" y1="44" x2="205.3" y2="104" stroke="#7ee7c4" stroke-opacity="0.70"/><line x1="129.9" y1="44" x2="129.9" y2="104" stroke="#7ee7c4" stroke-opacity="0.66"/><line x1="252.5" y1="44" x2="252.5" y2="104" stroke="#7ee7c4" stroke-opacity="0.28"/><line x1="512.2" y1="44" x2="512.2" y2="104" stroke="#7ee7c4" stroke-opacity="0.74"/><line x1="513.0" y1="44" x2="513.0" y2="104" stroke="#7ee7c4" stroke-opacity="0.65"/><line x1="693.5" y1="44" x2="693.5" y2="104" stroke="#7ee7c4" stroke-opacity="0.57"/><line x1="42.3" y1="44" x2="42.3" y2="104" stroke="#7ee7c4" stroke-opacity="0.89"/><line x1="88.7" y1="44" x2="88.7" y2="104" stroke="#7ee7c4" stroke-opacity="0.74"/><line x1="698.8" y1="44" x2="698.8" y2="104" stroke="#7ee7c4" stroke-opacity="0.45"/><line x1="190.8" y1="44" x2="190.8" y2="104" stroke="#7ee7c4" stroke-opacity="0.44"/><line x1="75.8" y1="44" x2="75.8" y2="104" stroke="#7ee7c4" stroke-opacity="0.53"/><line x1="353.8" y1="44" x2="353.8" y2="104" stroke="#7ee7c4" stroke-opacity="0.45"/><line x1="458.2" y1="44" x2="458.2" y2="104" stroke="#7ee7c4" stroke-opacity="0.27"/><line x1="650.9" y1="44" x2="650.9" y2="104" stroke="#7ee7c4" stroke-opacity="0.29"/><line x1="596.8" y1="44" x2="596.8" y2="104" stroke="#7ee7c4" stroke-opacity="0.86"/><line x1="362.9" y1="44" x2="362.9" y2="104" stroke="#7ee7c4" stroke-opacity="0.72"/><line x1="418.5" y1="44" x2="418.5" y2="104" stroke="#7ee7c4" stroke-opacity="0.71"/><line x1="727.0" y1="44" x2="727.0" y2="104" stroke="#7ee7c4" stroke-opacity="0.66"/><line x1="715.6" y1="44" x2="715.6" y2="104" stroke="#7ee7c4" stroke-opacity="0.70"/><line x1="536.6" y1="44" x2="536.6" y2="104" stroke="#7ee7c4" stroke-opacity="0.67"/><line x1="141.3" y1="44" x2="141.3" y2="104" stroke="#7ee7c4" stroke-opacity="0.57"/><line x1="126.8" y1="44" x2="126.8" y2="104" stroke="#7ee7c4" stroke-opacity="0.33"/><line x1="694.3" y1="44" x2="694.3" y2="104" stroke="#7ee7c4" stroke-opacity="0.27"/><line x1="448.3" y1="44" x2="448.3" y2="104" stroke="#7ee7c4" stroke-opacity="0.57"/><line x1="790.2" y1="44" x2="790.2" y2="104" stroke="#7ee7c4" stroke-opacity="0.44"/><line x1="653.9" y1="44" x2="653.9" y2="104" stroke="#7ee7c4" stroke-opacity="0.47"/><line x1="88.0" y1="44" x2="88.0" y2="104" stroke="#7ee7c4" stroke-opacity="0.25"/><line x1="299.0" y1="44" x2="299.0" y2="104" stroke="#7ee7c4" stroke-opacity="0.70"/><line x1="80.4" y1="44" x2="80.4" y2="104" stroke="#7ee7c4" stroke-opacity="0.25"/><line x1="699.6" y1="44" x2="699.6" y2="104" stroke="#7ee7c4" stroke-opacity="0.85"/><line x1="761.3" y1="44" x2="761.3" y2="104" stroke="#7ee7c4" stroke-opacity="0.51"/><line x1="557.9" y1="44" x2="557.9" y2="104" stroke="#7ee7c4" stroke-opacity="0.88"/><line x1="784.1" y1="44" x2="784.1" y2="104" stroke="#7ee7c4" stroke-opacity="0.76"/><line x1="513.8" y1="44" x2="513.8" y2="104" stroke="#7ee7c4" stroke-opacity="0.55"/><line x1="368.3" y1="44" x2="368.3" y2="104" stroke="#7ee7c4" stroke-opacity="0.61"/><line x1="67.4" y1="44" x2="67.4" y2="104" stroke="#7ee7c4" stroke-opacity="0.54"/><line x1="701.9" y1="44" x2="701.9" y2="104" stroke="#7ee7c4" stroke-opacity="0.81"/><line x1="522.9" y1="44" x2="522.9" y2="104" stroke="#7ee7c4" stroke-opacity="0.40"/><line x1="407.9" y1="44" x2="407.9" y2="104" stroke="#7ee7c4" stroke-opacity="0.82"/><line x1="777.3" y1="44" x2="777.3" y2="104" stroke="#7ee7c4" stroke-opacity="0.84"/><line x1="394.2" y1="44" x2="394.2" y2="104" stroke="#7ee7c4" stroke-opacity="0.67"/><line x1="757.5" y1="44" x2="757.5" y2="104" stroke="#7ee7c4" stroke-opacity="0.67"/><line x1="563.3" y1="44" x2="563.3" y2="104" stroke="#7ee7c4" stroke-opacity="0.84"/><line x1="420.8" y1="44" x2="420.8" y2="104" stroke="#7ee7c4" stroke-opacity="0.68"/><line x1="732.4" y1="44" x2="732.4" y2="104" stroke="#7ee7c4" stroke-opacity="0.46"/><line x1="766.6" y1="44" x2="766.6" y2="104" stroke="#7ee7c4" stroke-opacity="0.72"/><line x1="164.2" y1="44" x2="164.2" y2="104" stroke="#7ee7c4" stroke-opacity="0.82"/><line x1="168.0" y1="44" x2="168.0" y2="104" stroke="#7ee7c4" stroke-opacity="0.37"/><line x1="497.8" y1="44" x2="497.8" y2="104" stroke="#7ee7c4" stroke-opacity="0.73"/><line x1="745.3" y1="44" x2="745.3" y2="104" stroke="#7ee7c4" stroke-opacity="0.54"/><line x1="471.9" y1="44" x2="471.9" y2="104" stroke="#7ee7c4" stroke-opacity="0.76"/><line x1="79.6" y1="44" x2="79.6" y2="104" stroke="#7ee7c4" stroke-opacity="0.84"/><line x1="360.7" y1="44" x2="360.7" y2="104" stroke="#7ee7c4" stroke-opacity="0.53"/><line x1="279.2" y1="44" x2="279.2" y2="104" stroke="#7ee7c4" stroke-opacity="0.33"/><line x1="767.4" y1="44" x2="767.4" y2="104" stroke="#7ee7c4" stroke-opacity="0.84"/><line x1="143.6" y1="44" x2="143.6" y2="104" stroke="#7ee7c4" stroke-opacity="0.40"/><line x1="619.6" y1="44" x2="619.6" y2="104" stroke="#7ee7c4" stroke-opacity="0.89"/><line x1="593.0" y1="44" x2="593.0" y2="104" stroke="#7ee7c4" stroke-opacity="0.44"/><line x1="264.7" y1="44" x2="264.7" y2="104" stroke="#7ee7c4" stroke-opacity="0.33"/><line x1="494.0" y1="44" x2="494.0" y2="104" stroke="#7ee7c4" stroke-opacity="0.25"/><line x1="641.0" y1="44" x2="641.0" y2="104" stroke="#7ee7c4" stroke-opacity="0.58"/><line x1="303.5" y1="44" x2="303.5" y2="104" stroke="#7ee7c4" stroke-opacity="0.40"/><line x1="170.2" y1="44" x2="170.2" y2="104" stroke="#7ee7c4" stroke-opacity="0.65"/><line x1="679.8" y1="44" x2="679.8" y2="104" stroke="#7ee7c4" stroke-opacity="0.36"/><line x1="692.7" y1="44" x2="692.7" y2="104" stroke="#7ee7c4" stroke-opacity="0.63"/><line x1="507.7" y1="44" x2="507.7" y2="104" stroke="#7ee7c4" stroke-opacity="0.55"/><line x1="350.0" y1="44" x2="350.0" y2="104" stroke="#7ee7c4" stroke-opacity="0.31"/><line x1="91.8" y1="44" x2="91.8" y2="104" stroke="#7ee7c4" stroke-opacity="0.78"/><line x1="220.5" y1="44" x2="220.5" y2="104" stroke="#7ee7c4" stroke-opacity="0.57"/><line x1="193.9" y1="44" x2="193.9" y2="104" stroke="#7ee7c4" stroke-opacity="0.32"/><line x1="468.8" y1="44" x2="468.8" y2="104" stroke="#7ee7c4" stroke-opacity="0.55"/><line x1="710.3" y1="44" x2="710.3" y2="104" stroke="#7ee7c4" stroke-opacity="0.65"/><line x1="552.6" y1="44" x2="552.6" y2="104" stroke="#7ee7c4" stroke-opacity="0.71"/><line x1="684.4" y1="44" x2="684.4" y2="104" stroke="#7ee7c4" stroke-opacity="0.81"/><line x1="569.4" y1="44" x2="569.4" y2="104" stroke="#7ee7c4" stroke-opacity="0.76"/><line x1="500.0" y1="44" x2="500.0" y2="104" stroke="#7ee7c4" stroke-opacity="0.35"/><line x1="324.1" y1="44" x2="324.1" y2="104" stroke="#7ee7c4" stroke-opacity="0.71"/><line x1="675.2" y1="44" x2="675.2" y2="104" stroke="#7ee7c4" stroke-opacity="0.87"/><line x1="450.5" y1="44" x2="450.5" y2="104" stroke="#7ee7c4" stroke-opacity="0.94"/><line x1="722.4" y1="44" x2="722.4" y2="104" stroke="#7ee7c4" stroke-opacity="0.67"/><line x1="59.0" y1="44" x2="59.0" y2="104" stroke="#7ee7c4" stroke-opacity="0.26"/><line x1="355.3" y1="44" x2="355.3" y2="104" stroke="#7ee7c4" stroke-opacity="0.49"/><line x1="624.2" y1="44" x2="624.2" y2="104" stroke="#7ee7c4" stroke-opacity="0.71"/><line x1="548.8" y1="44" x2="548.8" y2="104" stroke="#7ee7c4" stroke-opacity="0.54"/><line x1="744.5" y1="44" x2="744.5" y2="104" stroke="#7ee7c4" stroke-opacity="0.94"/><line x1="388.8" y1="44" x2="388.8" y2="104" stroke="#7ee7c4" stroke-opacity="0.59"/><line x1="797.9" y1="44" x2="797.9" y2="104" stroke="#7ee7c4" stroke-opacity="0.27"/><line x1="442.2" y1="44" x2="442.2" y2="104" stroke="#7ee7c4" stroke-opacity="0.52"/><line x1="717.1" y1="44" x2="717.1" y2="104" stroke="#7ee7c4" stroke-opacity="0.33"/><line x1="434.5" y1="44" x2="434.5" y2="104" stroke="#7ee7c4" stroke-opacity="0.90"/><line x1="57.5" y1="44" x2="57.5" y2="104" stroke="#7ee7c4" stroke-opacity="0.26"/><line x1="231.9" y1="44" x2="231.9" y2="104" stroke="#7ee7c4" stroke-opacity="0.81"/><line x1="677.5" y1="44" x2="677.5" y2="104" stroke="#7ee7c4" stroke-opacity="0.70"/><line x1="291.3" y1="44" x2="291.3" y2="104" stroke="#7ee7c4" stroke-opacity="0.31"/><line x1="694.3" y1="44" x2="694.3" y2="104" stroke="#7ee7c4" stroke-opacity="0.75"/><line x1="734.6" y1="44" x2="734.6" y2="104" stroke="#7ee7c4" stroke-opacity="0.53"/><line x1="138.3" y1="44" x2="138.3" y2="104" stroke="#7ee7c4" stroke-opacity="0.48"/><line x1="489.4" y1="44" x2="489.4" y2="104" stroke="#7ee7c4" stroke-opacity="0.51"/><line x1="45.3" y1="44" x2="45.3" y2="104" stroke="#7ee7c4" stroke-opacity="0.56"/><line x1="463.5" y1="44" x2="463.5" y2="104" stroke="#7ee7c4" stroke-opacity="0.46"/><line x1="561.7" y1="44" x2="561.7" y2="104" stroke="#7ee7c4" stroke-opacity="0.83"/><line x1="139.0" y1="44" x2="139.0" y2="104" stroke="#7ee7c4" stroke-opacity="0.94"/><line x1="176.3" y1="44" x2="176.3" y2="104" stroke="#7ee7c4" stroke-opacity="0.92"/><line x1="551.8" y1="44" x2="551.8" y2="104" stroke="#7ee7c4" stroke-opacity="0.27"/><line x1="442.9" y1="44" x2="442.9" y2="104" stroke="#7ee7c4" stroke-opacity="0.66"/><line x1="239.6" y1="44" x2="239.6" y2="104" stroke="#7ee7c4" stroke-opacity="0.42"/><line x1="666.8" y1="44" x2="666.8" y2="104" stroke="#7ee7c4" stroke-opacity="0.29"/><line x1="475.7" y1="44" x2="475.7" y2="104" stroke="#7ee7c4" stroke-opacity="0.49"/><line x1="159.6" y1="44" x2="159.6" y2="104" stroke="#7ee7c4" stroke-opacity="0.47"/><line x1="260.9" y1="44" x2="260.9" y2="104" stroke="#7ee7c4" stroke-opacity="0.26"/><line x1="755.2" y1="44" x2="755.2" y2="104" stroke="#7ee7c4" stroke-opacity="0.42"/><line x1="198.4" y1="44" x2="198.4" y2="104" stroke="#7ee7c4" stroke-opacity="0.54"/><line x1="278.4" y1="44" x2="278.4" y2="104" stroke="#7ee7c4" stroke-opacity="0.35"/><line x1="93.3" y1="44" x2="93.3" y2="104" stroke="#7ee7c4" stroke-opacity="0.45"/><line x1="209.9" y1="44" x2="209.9" y2="104" stroke="#7ee7c4" stroke-opacity="0.81"/><line x1="603.6" y1="44" x2="603.6" y2="104" stroke="#7ee7c4" stroke-opacity="0.58"/><line x1="506.9" y1="44" x2="506.9" y2="104" stroke="#7ee7c4" stroke-opacity="0.40"/><line x1="394.9" y1="44" x2="394.9" y2="104" stroke="#7ee7c4" stroke-opacity="0.61"/><line x1="219.0" y1="44" x2="219.0" y2="104" stroke="#7ee7c4" stroke-opacity="0.40"/><line x1="631.1" y1="44" x2="631.1" y2="104" stroke="#7ee7c4" stroke-opacity="0.37"/><line x1="382.0" y1="44" x2="382.0" y2="104" stroke="#7ee7c4" stroke-opacity="0.85"/><line x1="471.1" y1="44" x2="471.1" y2="104" stroke="#7ee7c4" stroke-opacity="0.59"/><line x1="350.0" y1="44" x2="350.0" y2="104" stroke="#7ee7c4" stroke-opacity="0.42"/><line x1="597.5" y1="44" x2="597.5" y2="104" stroke="#7ee7c4" stroke-opacity="0.52"/><line x1="494.7" y1="44" x2="494.7" y2="104" stroke="#7ee7c4" stroke-opacity="0.79"/><line x1="638.7" y1="44" x2="638.7" y2="104" stroke="#7ee7c4" stroke-opacity="0.80"/><line x1="529.7" y1="44" x2="529.7" y2="104" stroke="#7ee7c4" stroke-opacity="0.59"/><line x1="430.0" y1="44" x2="430.0" y2="104" stroke="#7ee7c4" stroke-opacity="0.82"/><line x1="235.7" y1="44" x2="235.7" y2="104" stroke="#7ee7c4" stroke-opacity="0.37"/><line x1="123.8" y1="44" x2="123.8" y2="104" stroke="#7ee7c4" stroke-opacity="0.74"/><line x1="191.6" y1="44" x2="191.6" y2="104" stroke="#7ee7c4" stroke-opacity="0.40"/><line x1="414.7" y1="44" x2="414.7" y2="104" stroke="#7ee7c4" stroke-opacity="0.56"/><line x1="677.5" y1="44" x2="677.5" y2="104" stroke="#7ee7c4" stroke-opacity="0.25"/><line x1="254.8" y1="44" x2="254.8" y2="104" stroke="#7ee7c4" stroke-opacity="0.82"/><line x1="279.9" y1="44" x2="279.9" y2="104" stroke="#7ee7c4" stroke-opacity="0.39"/><line x1="765.1" y1="44" x2="765.1" y2="104" stroke="#7ee7c4" stroke-opacity="0.41"/><line x1="241.8" y1="44" x2="241.8" y2="104" stroke="#7ee7c4" stroke-opacity="0.52"/><line x1="276.1" y1="44" x2="276.1" y2="104" stroke="#7ee7c4" stroke-opacity="0.51"/><line x1="258.6" y1="44" x2="258.6" y2="104" stroke="#7ee7c4" stroke-opacity="0.45"/><line x1="79.6" y1="44" x2="79.6" y2="104" stroke="#7ee7c4" stroke-opacity="0.80"/><line x1="190.0" y1="44" x2="190.0" y2="104" stroke="#7ee7c4" stroke-opacity="0.46"/><line x1="394.9" y1="44" x2="394.9" y2="104" stroke="#7ee7c4" stroke-opacity="0.55"/><line x1="414.0" y1="44" x2="414.0" y2="104" stroke="#7ee7c4" stroke-opacity="0.28"/><line x1="600.6" y1="44" x2="600.6" y2="104" stroke="#7ee7c4" stroke-opacity="0.64"/><line x1="418.5" y1="44" x2="418.5" y2="104" stroke="#7ee7c4" stroke-opacity="0.27"/><line x1="544.2" y1="44" x2="544.2" y2="104" stroke="#7ee7c4" stroke-opacity="0.85"/><line x1="185.5" y1="44" x2="185.5" y2="104" stroke="#7ee7c4" stroke-opacity="0.28"/><line x1="585.4" y1="44" x2="585.4" y2="104" stroke="#7ee7c4" stroke-opacity="0.28"/><line x1="354.6" y1="44" x2="354.6" y2="104" stroke="#7ee7c4" stroke-opacity="0.64"/><line x1="108.5" y1="44" x2="108.5" y2="104" stroke="#7ee7c4" stroke-opacity="0.76"/><line x1="602.9" y1="44" x2="602.9" y2="104" stroke="#7ee7c4" stroke-opacity="0.29"/><line x1="515.3" y1="44" x2="515.3" y2="104" stroke="#7ee7c4" stroke-opacity="0.73"/><line x1="89.5" y1="44" x2="89.5" y2="104" stroke="#7ee7c4" stroke-opacity="0.71"/><line x1="593.0" y1="44" x2="593.0" y2="104" stroke="#7ee7c4" stroke-opacity="0.66"/><line x1="404.8" y1="44" x2="404.8" y2="104" stroke="#7ee7c4" stroke-opacity="0.71"/><line x1="280.7" y1="44" x2="280.7" y2="104" stroke="#7ee7c4" stroke-opacity="0.49"/><line x1="366.8" y1="44" x2="366.8" y2="104" stroke="#7ee7c4" stroke-opacity="0.66"/><line x1="784.9" y1="44" x2="784.9" y2="104" stroke="#7ee7c4" stroke-opacity="0.73"/><line x1="152.0" y1="44" x2="152.0" y2="104" stroke="#7ee7c4" stroke-opacity="0.33"/><line x1="752.9" y1="44" x2="752.9" y2="104" stroke="#7ee7c4" stroke-opacity="0.56"/><line x1="412.5" y1="44" x2="412.5" y2="104" stroke="#7ee7c4" stroke-opacity="0.41"/><line x1="154.2" y1="44" x2="154.2" y2="104" stroke="#7ee7c4" stroke-opacity="0.36"/><line x1="709.5" y1="44" x2="709.5" y2="104" stroke="#7ee7c4" stroke-opacity="0.45"/><line x1="591.4" y1="44" x2="591.4" y2="104" stroke="#7ee7c4" stroke-opacity="0.80"/><line x1="476.4" y1="44" x2="476.4" y2="104" stroke="#7ee7c4" stroke-opacity="0.34"/><line x1="84.2" y1="44" x2="84.2" y2="104" stroke="#7ee7c4" stroke-opacity="0.36"/><line x1="42.3" y1="44" x2="42.3" y2="104" stroke="#7ee7c4" stroke-opacity="0.64"/><line x1="765.1" y1="44" x2="765.1" y2="104" stroke="#7ee7c4" stroke-opacity="0.94"/><line x1="680.6" y1="44" x2="680.6" y2="104" stroke="#7ee7c4" stroke-opacity="0.28"/><line x1="708.7" y1="44" x2="708.7" y2="104" stroke="#7ee7c4" stroke-opacity="0.71"/><line x1="752.2" y1="44" x2="752.2" y2="104" stroke="#7ee7c4" stroke-opacity="0.68"/><line x1="725.5" y1="44" x2="725.5" y2="104" stroke="#7ee7c4" stroke-opacity="0.93"/><line x1="787.2" y1="44" x2="787.2" y2="104" stroke="#7ee7c4" stroke-opacity="0.51"/><line x1="565.5" y1="44" x2="565.5" y2="104" stroke="#7ee7c4" stroke-opacity="0.56"/><line x1="322.6" y1="44" x2="322.6" y2="104" stroke="#7ee7c4" stroke-opacity="0.56"/><line x1="375.1" y1="44" x2="375.1" y2="104" stroke="#7ee7c4" stroke-opacity="0.39"/><line x1="339.3" y1="44" x2="339.3" y2="104" stroke="#7ee7c4" stroke-opacity="0.78"/><line x1="593.0" y1="44" x2="593.0" y2="104" stroke="#7ee7c4" stroke-opacity="0.74"/><line x1="423.1" y1="44" x2="423.1" y2="104" stroke="#7ee7c4" stroke-opacity="0.92"/><line x1="189.3" y1="44" x2="189.3" y2="104" stroke="#7ee7c4" stroke-opacity="0.94"/><line x1="202.2" y1="44" x2="202.2" y2="104" stroke="#7ee7c4" stroke-opacity="0.88"/><line x1="102.5" y1="44" x2="102.5" y2="104" stroke="#7ee7c4" stroke-opacity="0.34"/><line x1="200.7" y1="44" x2="200.7" y2="104" stroke="#7ee7c4" stroke-opacity="0.30"/><line x1="685.9" y1="44" x2="685.9" y2="104" stroke="#7ee7c4" stroke-opacity="0.63"/><line x1="375.9" y1="44" x2="375.9" y2="104" stroke="#7ee7c4" stroke-opacity="0.76"/><line x1="245.6" y1="44" x2="245.6" y2="104" stroke="#7ee7c4" stroke-opacity="0.40"/><line x1="417.0" y1="44" x2="417.0" y2="104" stroke="#7ee7c4" stroke-opacity="0.25"/><line x1="372.1" y1="44" x2="372.1" y2="104" stroke="#7ee7c4" stroke-opacity="0.30"/><line x1="311.9" y1="44" x2="311.9" y2="104" stroke="#7ee7c4" stroke-opacity="0.67"/><line x1="577.7" y1="44" x2="577.7" y2="104" stroke="#7ee7c4" stroke-opacity="0.80"/><line x1="383.5" y1="44" x2="383.5" y2="104" stroke="#7ee7c4" stroke-opacity="0.37"/><line x1="161.9" y1="44" x2="161.9" y2="104" stroke="#7ee7c4" stroke-opacity="0.41"/><line x1="735.4" y1="44" x2="735.4" y2="104" stroke="#7ee7c4" stroke-opacity="0.84"/><line x1="385.8" y1="44" x2="385.8" y2="104" stroke="#7ee7c4" stroke-opacity="0.64"/><line x1="392.6" y1="44" x2="392.6" y2="104" stroke="#7ee7c4" stroke-opacity="0.37"/><line x1="768.1" y1="44" x2="768.1" y2="104" stroke="#7ee7c4" stroke-opacity="0.34"/><line x1="641.0" y1="44" x2="641.0" y2="104" stroke="#7ee7c4" stroke-opacity="0.82"/><line x1="157.3" y1="44" x2="157.3" y2="104" stroke="#7ee7c4" stroke-opacity="0.70"/><line x1="60.6" y1="44" x2="60.6" y2="104" stroke="#7ee7c4" stroke-opacity="0.53"/><line x1="527.5" y1="44" x2="527.5" y2="104" stroke="#7ee7c4" stroke-opacity="0.30"/><line x1="351.5" y1="44" x2="351.5" y2="104" stroke="#7ee7c4" stroke-opacity="0.52"/><line x1="513.8" y1="44" x2="513.8" y2="104" stroke="#7ee7c4" stroke-opacity="0.64"/><line x1="368.3" y1="44" x2="368.3" y2="104" stroke="#7ee7c4" stroke-opacity="0.52"/><line x1="670.7" y1="44" x2="670.7" y2="104" stroke="#7ee7c4" stroke-opacity="0.66"/><line x1="49.9" y1="44" x2="49.9" y2="104" stroke="#7ee7c4" stroke-opacity="0.78"/><line x1="486.3" y1="44" x2="486.3" y2="104" stroke="#7ee7c4" stroke-opacity="0.54"/><line x1="158.1" y1="44" x2="158.1" y2="104" stroke="#7ee7c4" stroke-opacity="0.80"/><line x1="545.7" y1="44" x2="545.7" y2="104" stroke="#7ee7c4" stroke-opacity="0.74"/><line x1="765.9" y1="44" x2="765.9" y2="104" stroke="#7ee7c4" stroke-opacity="0.35"/><line x1="471.1" y1="44" x2="471.1" y2="104" stroke="#7ee7c4" stroke-opacity="0.56"/><line x1="429.2" y1="44" x2="429.2" y2="104" stroke="#7ee7c4" stroke-opacity="0.69"/><line x1="524.4" y1="44" x2="524.4" y2="104" stroke="#7ee7c4" stroke-opacity="0.50"/><line x1="695.8" y1="44" x2="695.8" y2="104" stroke="#7ee7c4" stroke-opacity="0.64"/><line x1="102.5" y1="44" x2="102.5" y2="104" stroke="#7ee7c4" stroke-opacity="0.94"/><line x1="657.7" y1="44" x2="657.7" y2="104" stroke="#7ee7c4" stroke-opacity="0.33"/><line x1="192.3" y1="44" x2="192.3" y2="104" stroke="#7ee7c4" stroke-opacity="0.84"/><line x1="668.4" y1="44" x2="668.4" y2="104" stroke="#7ee7c4" stroke-opacity="0.84"/><line x1="714.8" y1="44" x2="714.8" y2="104" stroke="#7ee7c4" stroke-opacity="0.71"/><line x1="752.2" y1="44" x2="752.2" y2="104" stroke="#7ee7c4" stroke-opacity="0.26"/><line x1="61.3" y1="44" x2="61.3" y2="104" stroke="#7ee7c4" stroke-opacity="0.59"/><line x1="49.9" y1="44" x2="49.9" y2="104" stroke="#7ee7c4" stroke-opacity="0.30"/><line x1="90.3" y1="44" x2="90.3" y2="104" stroke="#7ee7c4" stroke-opacity="0.34"/><line x1="249.5" y1="44" x2="249.5" y2="104" stroke="#7ee7c4" stroke-opacity="0.31"/><line x1="679.8" y1="44" x2="679.8" y2="104" stroke="#7ee7c4" stroke-opacity="0.89"/><line x1="570.9" y1="44" x2="570.9" y2="104" stroke="#7ee7c4" stroke-opacity="0.27"/><line x1="714.8" y1="44" x2="714.8" y2="104" stroke="#7ee7c4" stroke-opacity="0.55"/><line x1="264.7" y1="44" x2="264.7" y2="104" stroke="#7ee7c4" stroke-opacity="0.70"/><line x1="341.6" y1="44" x2="341.6" y2="104" stroke="#7ee7c4" stroke-opacity="0.81"/><line x1="793.3" y1="44" x2="793.3" y2="104" stroke="#7ee7c4" stroke-opacity="0.56"/><line x1="693.5" y1="44" x2="693.5" y2="104" stroke="#7ee7c4" stroke-opacity="0.65"/><line x1="700.4" y1="44" x2="700.4" y2="104" stroke="#7ee7c4" stroke-opacity="0.26"/><line x1="235.0" y1="44" x2="235.0" y2="104" stroke="#7ee7c4" stroke-opacity="0.47"/><line x1="729.3" y1="44" x2="729.3" y2="104" stroke="#7ee7c4" stroke-opacity="0.47"/><line x1="507.7" y1="44" x2="507.7" y2="104" stroke="#7ee7c4" stroke-opacity="0.89"/><line x1="319.5" y1="44" x2="319.5" y2="104" stroke="#7ee7c4" stroke-opacity="0.46"/><line x1="573.2" y1="44" x2="573.2" y2="104" stroke="#7ee7c4" stroke-opacity="0.35"/><line x1="123.0" y1="44" x2="123.0" y2="104" stroke="#7ee7c4" stroke-opacity="0.82"/><line x1="96.4" y1="44" x2="96.4" y2="104" stroke="#7ee7c4" stroke-opacity="0.81"/><line x1="395.7" y1="44" x2="395.7" y2="104" stroke="#7ee7c4" stroke-opacity="0.26"/><line x1="58.3" y1="44" x2="58.3" y2="104" stroke="#7ee7c4" stroke-opacity="0.62"/><line x1="241.8" y1="44" x2="241.8" y2="104" stroke="#7ee7c4" stroke-opacity="0.80"/><line x1="190.8" y1="44" x2="190.8" y2="104" stroke="#7ee7c4" stroke-opacity="0.76"/><line x1="685.1" y1="44" x2="685.1" y2="104" stroke="#7ee7c4" stroke-opacity="0.38"/><line x1="530.5" y1="44" x2="530.5" y2="104" stroke="#7ee7c4" stroke-opacity="0.28"/><line x1="701.9" y1="44" x2="701.9" y2="104" stroke="#7ee7c4" stroke-opacity="0.71"/><line x1="553.4" y1="44" x2="553.4" y2="104" stroke="#7ee7c4" stroke-opacity="0.92"/><line x1="298.2" y1="44" x2="298.2" y2="104" stroke="#7ee7c4" stroke-opacity="0.88"/><line x1="393.4" y1="44" x2="393.4" y2="104" stroke="#7ee7c4" stroke-opacity="0.44"/><line x1="187.0" y1="44" x2="187.0" y2="104" stroke="#7ee7c4" stroke-opacity="0.78"/><line x1="62.8" y1="44" x2="62.8" y2="104" stroke="#7ee7c4" stroke-opacity="0.44"/><line x1="648.6" y1="44" x2="648.6" y2="104" stroke="#7ee7c4" stroke-opacity="0.92"/><line x1="487.9" y1="44" x2="487.9" y2="104" stroke="#7ee7c4" stroke-opacity="0.30"/><line x1="567.8" y1="44" x2="567.8" y2="104" stroke="#7ee7c4" stroke-opacity="0.30"/><line x1="114.6" y1="44" x2="114.6" y2="104" stroke="#7ee7c4" stroke-opacity="0.37"/><line x1="645.5" y1="44" x2="645.5" y2="104" stroke="#7ee7c4" stroke-opacity="0.69"/><line x1="771.2" y1="44" x2="771.2" y2="104" stroke="#7ee7c4" stroke-opacity="0.58"/><line x1="686.7" y1="44" x2="686.7" y2="104" stroke="#7ee7c4" stroke-opacity="0.92"/><line x1="550.3" y1="44" x2="550.3" y2="104" stroke="#7ee7c4" stroke-opacity="0.63"/><line x1="715.6" y1="44" x2="715.6" y2="104" stroke="#7ee7c4" stroke-opacity="0.54"/><line x1="347.7" y1="44" x2="347.7" y2="104" stroke="#7ee7c4" stroke-opacity="0.89"/><line x1="793.3" y1="44" x2="793.3" y2="104" stroke="#7ee7c4" stroke-opacity="0.60"/><line x1="303.5" y1="44" x2="303.5" y2="104" stroke="#7ee7c4" stroke-opacity="0.67"/><line x1="572.4" y1="44" x2="572.4" y2="104" stroke="#7ee7c4" stroke-opacity="0.67"/><line x1="631.1" y1="44" x2="631.1" y2="104" stroke="#7ee7c4" stroke-opacity="0.61"/><line x1="345.4" y1="44" x2="345.4" y2="104" stroke="#7ee7c4" stroke-opacity="0.63"/><line x1="300.5" y1="44" x2="300.5" y2="104" stroke="#7ee7c4" stroke-opacity="0.89"/><line x1="197.7" y1="44" x2="197.7" y2="104" stroke="#7ee7c4" stroke-opacity="0.47"/><line x1="219.8" y1="44" x2="219.8" y2="104" stroke="#7ee7c4" stroke-opacity="0.50"/><line x1="299.7" y1="44" x2="299.7" y2="104" stroke="#7ee7c4" stroke-opacity="0.89"/><line x1="504.6" y1="44" x2="504.6" y2="104" stroke="#7ee7c4" stroke-opacity="0.70"/><line x1="517.6" y1="44" x2="517.6" y2="104" stroke="#7ee7c4" stroke-opacity="0.94"/><line x1="704.2" y1="44" x2="704.2" y2="104" stroke="#7ee7c4" stroke-opacity="0.33"/><line x1="235.7" y1="44" x2="235.7" y2="104" stroke="#7ee7c4" stroke-opacity="0.54"/><line x1="660.0" y1="44" x2="660.0" y2="104" stroke="#7ee7c4" stroke-opacity="0.93"/><line x1="276.9" y1="44" x2="276.9" y2="104" stroke="#7ee7c4" stroke-opacity="0.70"/><line x1="561.0" y1="44" x2="561.0" y2="104" stroke="#7ee7c4" stroke-opacity="0.34"/><line x1="580.0" y1="44" x2="580.0" y2="104" stroke="#7ee7c4" stroke-opacity="0.75"/><line x1="559.5" y1="44" x2="559.5" y2="104" stroke="#7ee7c4" stroke-opacity="0.74"/><line x1="572.4" y1="44" x2="572.4" y2="104" stroke="#7ee7c4" stroke-opacity="0.81"/><line x1="655.4" y1="44" x2="655.4" y2="104" stroke="#7ee7c4" stroke-opacity="0.73"/><line x1="46.9" y1="44" x2="46.9" y2="104" stroke="#7ee7c4" stroke-opacity="0.73"/><line x1="209.1" y1="44" x2="209.1" y2="104" stroke="#7ee7c4" stroke-opacity="0.30"/><line x1="319.5" y1="44" x2="319.5" y2="104" stroke="#7ee7c4" stroke-opacity="0.35"/><line x1="85.7" y1="44" x2="85.7" y2="104" stroke="#7ee7c4" stroke-opacity="0.79"/><line x1="269.3" y1="44" x2="269.3" y2="104" stroke="#7ee7c4" stroke-opacity="0.51"/><line x1="596.0" y1="44" x2="596.0" y2="104" stroke="#7ee7c4" stroke-opacity="0.70"/><line x1="176.3" y1="44" x2="176.3" y2="104" stroke="#7ee7c4" stroke-opacity="0.33"/><line x1="180.1" y1="44" x2="180.1" y2="104" stroke="#7ee7c4" stroke-opacity="0.73"/><line x1="162.6" y1="44" x2="162.6" y2="104" stroke="#7ee7c4" stroke-opacity="0.86"/><line x1="465.0" y1="44" x2="465.0" y2="104" stroke="#7ee7c4" stroke-opacity="0.38"/><line x1="557.2" y1="44" x2="557.2" y2="104" stroke="#7ee7c4" stroke-opacity="0.57"/><line x1="457.4" y1="44" x2="457.4" y2="104" stroke="#7ee7c4" stroke-opacity="0.61"/><line x1="470.3" y1="44" x2="470.3" y2="104" stroke="#7ee7c4" stroke-opacity="0.89"/><line x1="644.8" y1="44" x2="644.8" y2="104" stroke="#7ee7c4" stroke-opacity="0.79"/><line x1="158.1" y1="44" x2="158.1" y2="104" stroke="#7ee7c4" stroke-opacity="0.74"/><line x1="423.9" y1="44" x2="423.9" y2="104" stroke="#7ee7c4" stroke-opacity="0.67"/><line x1="613.5" y1="44" x2="613.5" y2="104" stroke="#7ee7c4" stroke-opacity="0.83"/><line x1="355.3" y1="44" x2="355.3" y2="104" stroke="#7ee7c4" stroke-opacity="0.54"/><line x1="794.8" y1="44" x2="794.8" y2="104" stroke="#7ee7c4" stroke-opacity="0.93"/><line x1="542.7" y1="44" x2="542.7" y2="104" stroke="#7ee7c4" stroke-opacity="0.57"/><line x1="378.9" y1="44" x2="378.9" y2="104" stroke="#7ee7c4" stroke-opacity="0.44"/><line x1="760.5" y1="44" x2="760.5" y2="104" stroke="#7ee7c4" stroke-opacity="0.29"/><line x1="578.5" y1="44" x2="578.5" y2="104" stroke="#7ee7c4" stroke-opacity="0.62"/><line x1="716.4" y1="44" x2="716.4" y2="104" stroke="#7ee7c4" stroke-opacity="0.25"/><line x1="753.7" y1="44" x2="753.7" y2="104" stroke="#7ee7c4" stroke-opacity="0.61"/><line x1="775.8" y1="44" x2="775.8" y2="104" stroke="#7ee7c4" stroke-opacity="0.83"/><line x1="478.0" y1="44" x2="478.0" y2="104" stroke="#7ee7c4" stroke-opacity="0.41"/><line x1="366.0" y1="44" x2="366.0" y2="104" stroke="#7ee7c4" stroke-opacity="0.66"/><line x1="391.1" y1="44" x2="391.1" y2="104" stroke="#7ee7c4" stroke-opacity="0.27"/><line x1="705.7" y1="44" x2="705.7" y2="104" stroke="#7ee7c4" stroke-opacity="0.42"/><line x1="188.5" y1="44" x2="188.5" y2="104" stroke="#7ee7c4" stroke-opacity="0.58"/><line x1="283.7" y1="44" x2="283.7" y2="104" stroke="#7ee7c4" stroke-opacity="0.55"/><line x1="211.4" y1="44" x2="211.4" y2="104" stroke="#7ee7c4" stroke-opacity="0.49"/><line x1="653.9" y1="44" x2="653.9" y2="104" stroke="#7ee7c4" stroke-opacity="0.33"/><line x1="599.8" y1="44" x2="599.8" y2="104" stroke="#7ee7c4" stroke-opacity="0.27"/><line x1="494.0" y1="44" x2="494.0" y2="104" stroke="#7ee7c4" stroke-opacity="0.54"/><line x1="348.5" y1="44" x2="348.5" y2="104" stroke="#7ee7c4" stroke-opacity="0.66"/><line x1="407.1" y1="44" x2="407.1" y2="104" stroke="#7ee7c4" stroke-opacity="0.93"/><line x1="78.8" y1="44" x2="78.8" y2="104" stroke="#7ee7c4" stroke-opacity="0.39"/><line x1="466.5" y1="44" x2="466.5" y2="104" stroke="#7ee7c4" stroke-opacity="0.65"/><line x1="467.3" y1="44" x2="467.3" y2="104" stroke="#7ee7c4" stroke-opacity="0.83"/><line x1="769.7" y1="44" x2="769.7" y2="104" stroke="#7ee7c4" stroke-opacity="0.60"/><line x1="788.7" y1="44" x2="788.7" y2="104" stroke="#7ee7c4" stroke-opacity="0.29"/><line x1="725.5" y1="44" x2="725.5" y2="104" stroke="#7ee7c4" stroke-opacity="0.35"/><line x1="159.6" y1="44" x2="159.6" y2="104" stroke="#7ee7c4" stroke-opacity="0.51"/><line x1="468.1" y1="44" x2="468.1" y2="104" stroke="#7ee7c4" stroke-opacity="0.31"/><line x1="158.1" y1="44" x2="158.1" y2="104" stroke="#7ee7c4" stroke-opacity="0.27"/><line x1="362.9" y1="44" x2="362.9" y2="104" stroke="#7ee7c4" stroke-opacity="0.50"/><line x1="540.4" y1="44" x2="540.4" y2="104" stroke="#7ee7c4" stroke-opacity="0.30"/><line x1="690.5" y1="44" x2="690.5" y2="104" stroke="#7ee7c4" stroke-opacity="0.71"/><line x1="252.5" y1="44" x2="252.5" y2="104" stroke="#7ee7c4" stroke-opacity="0.56"/><line x1="573.2" y1="44" x2="573.2" y2="104" stroke="#7ee7c4" stroke-opacity="0.38"/><line x1="665.3" y1="44" x2="665.3" y2="104" stroke="#7ee7c4" stroke-opacity="0.87"/><line x1="96.4" y1="44" x2="96.4" y2="104" stroke="#7ee7c4" stroke-opacity="0.36"/><line x1="669.9" y1="44" x2="669.9" y2="104" stroke="#7ee7c4" stroke-opacity="0.30"/><line x1="100.9" y1="44" x2="100.9" y2="104" stroke="#7ee7c4" stroke-opacity="0.92"/><line x1="812.8" y1="44" x2="812.8" y2="104" stroke="#b69cff" stroke-opacity="0.33"/><line x1="822.6" y1="44" x2="822.6" y2="104" stroke="#b69cff" stroke-opacity="0.53"/><line x1="835.0" y1="44" x2="835.0" y2="104" stroke="#b69cff" stroke-opacity="0.63"/><line x1="823.3" y1="44" x2="823.3" y2="104" stroke="#b69cff" stroke-opacity="0.47"/><line x1="833.7" y1="44" x2="833.7" y2="104" stroke="#b69cff" stroke-opacity="0.47"/><line x1="848.5" y1="44" x2="848.5" y2="104" stroke="#b69cff" stroke-opacity="0.88"/><line x1="807.6" y1="44" x2="807.6" y2="104" stroke="#b69cff" stroke-opacity="0.54"/><line x1="809.9" y1="44" x2="809.9" y2="104" stroke="#b69cff" stroke-opacity="0.28"/><line x1="814.7" y1="44" x2="814.7" y2="104" stroke="#b69cff" stroke-opacity="0.53"/><line x1="847.5" y1="44" x2="847.5" y2="104" stroke="#b69cff" stroke-opacity="0.63"/><line x1="838.7" y1="44" x2="838.7" y2="104" stroke="#b69cff" stroke-opacity="0.67"/><line x1="841.8" y1="44" x2="841.8" y2="104" stroke="#b69cff" stroke-opacity="0.38"/><line x1="802.0" y1="44" x2="802.0" y2="104" stroke="#b69cff" stroke-opacity="0.44"/><line x1="845.1" y1="44" x2="845.1" y2="104" stroke="#b69cff" stroke-opacity="0.55"/><line x1="829.1" y1="44" x2="829.1" y2="104" stroke="#b69cff" stroke-opacity="0.71"/><line x1="837.8" y1="44" x2="837.8" y2="104" stroke="#b69cff" stroke-opacity="0.71"/><line x1="831.3" y1="44" x2="831.3" y2="104" stroke="#b69cff" stroke-opacity="0.51"/><line x1="839.6" y1="44" x2="839.6" y2="104" stroke="#b69cff" stroke-opacity="0.33"/><line x1="838.7" y1="44" x2="838.7" y2="104" stroke="#b69cff" stroke-opacity="0.70"/><line x1="827.1" y1="44" x2="827.1" y2="104" stroke="#b69cff" stroke-opacity="0.56"/><line x1="825.8" y1="44" x2="825.8" y2="104" stroke="#b69cff" stroke-opacity="0.74"/><line x1="876.5" y1="44" x2="876.5" y2="104" stroke="#ffcf70" stroke-opacity="0.33"/><line x1="878.5" y1="44" x2="878.5" y2="104" stroke="#ffcf70" stroke-opacity="0.39"/><line x1="851.2" y1="44" x2="851.2" y2="104" stroke="#ffcf70" stroke-opacity="0.56"/><line x1="860.7" y1="44" x2="860.7" y2="104" stroke="#ffcf70" stroke-opacity="0.81"/><line x1="857.7" y1="44" x2="857.7" y2="104" stroke="#ffcf70" stroke-opacity="0.62"/><line x1="863.9" y1="44" x2="863.9" y2="104" stroke="#ffcf70" stroke-opacity="0.56"/><line x1="856.7" y1="44" x2="856.7" y2="104" stroke="#ffcf70" stroke-opacity="0.79"/><line x1="884.0" y1="44" x2="884.0" y2="104" stroke="#ffcf70" stroke-opacity="0.88"/><line x1="865.4" y1="44" x2="865.4" y2="104" stroke="#ffcf70" stroke-opacity="0.44"/><line x1="866.8" y1="44" x2="866.8" y2="104" stroke="#ffcf70" stroke-opacity="0.85"/><line x1="850.9" y1="44" x2="850.9" y2="104" stroke="#ffcf70" stroke-opacity="0.69"/><line x1="855.9" y1="44" x2="855.9" y2="104" stroke="#ffcf70" stroke-opacity="0.28"/><line x1="867.0" y1="44" x2="867.0" y2="104" stroke="#ffcf70" stroke-opacity="0.86"/><line x1="858.2" y1="44" x2="858.2" y2="104" stroke="#ffcf70" stroke-opacity="0.61"/><line x1="878.7" y1="44" x2="878.7" y2="104" stroke="#ffcf70" stroke-opacity="0.81"/><line x1="859.9" y1="44" x2="859.9" y2="104" stroke="#ffcf70" stroke-opacity="0.42"/><line x1="864.8" y1="44" x2="864.8" y2="104" stroke="#ffcf70" stroke-opacity="0.68"/><line x1="907.1" y1="44" x2="907.1" y2="104" stroke="#ff7b86" stroke-opacity="0.70"/><line x1="891.2" y1="44" x2="891.2" y2="104" stroke="#ff7b86" stroke-opacity="0.70"/><line x1="893.3" y1="44" x2="893.3" y2="104" stroke="#ff7b86" stroke-opacity="0.30"/><line x1="914.1" y1="44" x2="914.1" y2="104" stroke="#ff7b86" stroke-opacity="0.80"/><line x1="904.9" y1="44" x2="904.9" y2="104" stroke="#ff7b86" stroke-opacity="0.38"/><line x1="896.5" y1="44" x2="896.5" y2="104" stroke="#ff7b86" stroke-opacity="0.42"/><line x1="905.6" y1="44" x2="905.6" y2="104" stroke="#ff7b86" stroke-opacity="0.86"/><line x1="890.8" y1="44" x2="890.8" y2="104" stroke="#ff7b86" stroke-opacity="0.45"/><line x1="913.5" y1="44" x2="913.5" y2="104" stroke="#ff7b86" stroke-opacity="0.86"/><line x1="898.4" y1="44" x2="898.4" y2="104" stroke="#ff7b86" stroke-opacity="0.66"/><line x1="913.4" y1="44" x2="913.4" y2="104" stroke="#ff7b86" stroke-opacity="0.61"/><line x1="917.5" y1="44" x2="917.5" y2="104" stroke="#ff7b86" stroke-opacity="0.62"/><line x1="908.2" y1="44" x2="908.2" y2="104" stroke="#ff7b86" stroke-opacity="0.37"/><line x1="917.9" y1="44" x2="917.9" y2="104" stroke="#ff7b86" stroke-opacity="0.68"/><line x1="925.9" y1="44" x2="925.9" y2="104" stroke="#d6dce8" stroke-opacity="0.33"/><line x1="940.7" y1="44" x2="940.7" y2="104" stroke="#d6dce8" stroke-opacity="0.81"/><line x1="921.5" y1="44" x2="921.5" y2="104" stroke="#d6dce8" stroke-opacity="0.47"/><line x1="941.4" y1="44" x2="941.4" y2="104" stroke="#d6dce8" stroke-opacity="0.93"/><line x1="930.1" y1="44" x2="930.1" y2="104" stroke="#d6dce8" stroke-opacity="0.56"/><line x1="918.9" y1="44" x2="918.9" y2="104" stroke="#d6dce8" stroke-opacity="0.74"/><line x1="940.0" y1="44" x2="940.0" y2="104" stroke="#d6dce8" stroke-opacity="0.55"/><line x1="932.1" y1="44" x2="932.1" y2="104" stroke="#d6dce8" stroke-opacity="0.88"/><line x1="934.0" y1="44" x2="934.0" y2="104" stroke="#d6dce8" stroke-opacity="0.85"/><line x1="930.6" y1="44" x2="930.6" y2="104" stroke="#d6dce8" stroke-opacity="0.55"/><line x1="948.4" y1="44" x2="948.4" y2="104" stroke="#6b7489" stroke-opacity="0.75"/><line x1="942.8" y1="44" x2="942.8" y2="104" stroke="#6b7489" stroke-opacity="0.56"/><line x1="955.2" y1="44" x2="955.2" y2="104" stroke="#6b7489" stroke-opacity="0.83"/><line x1="954.8" y1="44" x2="954.8" y2="104" stroke="#6b7489" stroke-opacity="0.67"/><line x1="947.3" y1="44" x2="947.3" y2="104" stroke="#6b7489" stroke-opacity="0.59"/><line x1="954.8" y1="44" x2="954.8" y2="104" stroke="#6b7489" stroke-opacity="0.33"/><line x1="956.3" y1="44" x2="956.3" y2="104" stroke="#6b7489" stroke-opacity="0.33"/><line x1="958.3" y1="44" x2="958.3" y2="104" stroke="#6b7489" stroke-opacity="0.87"/><line x1="959.3" y1="44" x2="959.3" y2="104" stroke="#6b7489" stroke-opacity="0.84"/><line x1="959.7" y1="44" x2="959.7" y2="104" stroke="#6b7489" stroke-opacity="0.55"/><line x1="960.0" y1="44" x2="960.0" y2="104" stroke="#6b7489" stroke-opacity="0.50"/></g><rect x="40.0" y="112" width="760.7" height="4" fill="#7ee7c4"/><rect x="801.7" y="112" width="46.1" height="4" fill="#b69cff"/><rect x="848.8" y="112" width="36.6" height="4" fill="#ffcf70"/><rect x="886.4" y="112" width="31.3" height="4" fill="#ff7b86"/><rect x="918.6" y="112" width="22.0" height="4" fill="#d6dce8"/><rect x="941.6" y="112" width="15.6" height="4" fill="#6b7489"/><rect x="958.2" y="112" width="1.0" height="4" fill="#6b7489"/><rect x="959.1" y="112" width="1.0" height="4" fill="#6b7489"/><rect x="959.7" y="112" width="1.0" height="4" fill="#6b7489"/><rect x="960.0" y="112" width="1.0" height="4" fill="#6b7489"/><text x="40" y="148" fill="#7ee7c4">Python</text><text x="40" y="166" fill="#6b7489">82.8%</text><text x="200" y="148" fill="#b69cff">TypeScript</text><text x="200" y="166" fill="#6b7489">5.1%</text><text x="360" y="148" fill="#ffcf70">Vue</text><text x="360" y="166" fill="#6b7489">4.1%</text><text x="520" y="148" fill="#ff7b86">Shell</text><text x="520" y="166" fill="#6b7489">3.5%</text><text x="680" y="148" fill="#d6dce8">CSS</text><text x="680" y="166" fill="#6b7489">2.5%</text>
<text x="960" y="166" text-anchor="end" fill="#6b7489">+5 trace elements</text>
</svg>